<svg xmlns="http://www.w3.org/2000/svg" xmlns:xlink="http://www.w3.org/1999/xlink" viewBox="0 0 550.67 112.64"><defs><style>.cls-1{fill:url(#Degradado_sin_nombre_9);}.cls-2{fill:#082965;}.cls-3{fill:url(#Degradado_sin_nombre_9-2);}.cls-4{fill:url(#Degradado_sin_nombre_9-3);}.cls-5{fill:url(#Degradado_sin_nombre_9-4);}.cls-6{fill:url(#Degradado_sin_nombre_9-5);}.cls-7{fill:url(#Degradado_sin_nombre_9-6);}</style><linearGradient id="Degradado_sin_nombre_9" x1="497.08" y1="56.3" x2="548.96" y2="56.3" gradientUnits="userSpaceOnUse"><stop offset="0" stop-color="#fe2e00"/><stop offset="1" stop-color="#fd3600"/></linearGradient><linearGradient id="Degradado_sin_nombre_9-2" x1="450.08" y1="56.28" x2="492.17" y2="56.28" xlink:href="#Degradado_sin_nombre_9"/><linearGradient id="Degradado_sin_nombre_9-3" x1="368.3" y1="56.25" x2="410.04" y2="56.25" xlink:href="#Degradado_sin_nombre_9"/><linearGradient id="Degradado_sin_nombre_9-4" x1="412.37" y1="56.32" x2="448.26" y2="56.32" xlink:href="#Degradado_sin_nombre_9"/><linearGradient id="Degradado_sin_nombre_9-5" x1="336.8" y1="56.3" x2="365.73" y2="56.3" xlink:href="#Degradado_sin_nombre_9"/><linearGradient id="Degradado_sin_nombre_9-6" x1="3.03" y1="6.88" x2="87.95" y2="104.57" xlink:href="#Degradado_sin_nombre_9"/></defs><title>Scrum logo principal</title><g id="Capa_2" data-name="Capa 2"><g id="Capa_1-2" data-name="Capa 1"><path class="cls-1" d="M508.24,45.63q-.47,10.11-.95,20.24c-.2,4-.46,8-.62,12-.07,1.52-.49,2.37-2.25,2.27-2.31-.13-4.62,0-7.34,0,1.17-15.91,2.33-31.62,3.51-47.57,4.07,0,7.9-.09,11.71.09.56,0,1.32,1.21,1.55,2,2.92,9.88,5.76,19.78,8.62,29.68.14.49.33,1,.66,2,1.44-5.16,2.63-9.86,4-14.48C529,45.79,531,39.88,533,34a2.47,2.47,0,0,1,1.74-1.43c3.59-.14,7.19-.07,11.21-.07,1,15.79,2,31.44,3,47.55-3.12,0-6,.07-8.94-.08-.36,0-.92-1.14-.95-1.77-.5-10.62-.94-21.23-1.4-31.85a1.74,1.74,0,0,0-.45-1.23c-1,3.39-2,6.78-3.08,10.15C531.78,62.64,529.32,70,527,77.4c-.53,1.72-1.43,2.13-3.1,2.11-5.43-.05-5.53,0-7-5.13-2.64-9-5.14-18.13-7.7-27.2-.15-.53-.34-1-.51-1.58Z"/><path class="cls-2" d="M304.88,67.47c3.26-10.49,6.49-20.76,9.6-31.07.49-1.61,1.19-2.15,2.84-2.09,3.33.13,6.68,0,10.18,0,.49,8.41,1,16.53,1.45,24.65.42,6.78.8,13.56,1.32,20.33.15,1.94-.27,2.85-2.39,2.63a21,21,0,0,0-4.55,0c-2.21.27-2.7-.76-2.77-2.71-.35-10.14-.79-20.27-1.21-30.4a1.92,1.92,0,0,0-.62-1.38c-.91,3.08-1.78,6.17-2.75,9.24-2.38,7.54-4.85,15-7.17,22.61-.5,1.63-1.32,2-2.91,2-5.44,0-5.51,0-7-5.18-2.61-9.22-5.13-18.46-7.69-27.69a9.85,9.85,0,0,0-.71-1.31c-.61,11.91-1.19,23.11-1.77,34.53h-9.09c0-1-.06-2,0-3,1-13.94,2.07-27.88,3-41.82.13-1.89.59-2.74,2.64-2.61a74,74,0,0,0,8.16,0c1.5-.06,2.09.51,2.47,1.89,2.78,10,5.62,20,8.45,30C304.52,66.62,304.72,67,304.88,67.47Z"/><path class="cls-2" d="M228.3,81.92c-3.2,0-6.16.13-9.08-.09-.7,0-1.65-1.17-1.89-2-1-3.52-1.83-7.11-2.77-10.66-1.26-4.74-3.59-6.41-8.47-6.42-1.55,0-2.11.45-2.08,2,.08,4.87-.07,9.75.07,14.62.06,2-.61,2.69-2.58,2.53A39,39,0,0,0,196,82c-1.61.09-2.06-.55-2-2.09.06-7.35,0-14.7,0-22.05,0-6.87,0-13.74.06-20.61,0-.81.69-2.23,1.2-2.3,7.45-1,14.94-1.81,22.33.38,5.7,1.69,8.82,5.51,9.07,11.52.22,5.47-2.48,9.21-7.12,11.77-.27.15-.54.34-.8.52-.05,0-.06.13-.16.4,4.32,2.31,5.53,6.59,6.64,11C226.13,74.15,227.18,77.82,228.3,81.92ZM204,48.72c0,7.92,0,7.92,6.73,6.56a7,7,0,0,0,5.74-6.19c.25-3.94-1.28-6.32-5-7.33a27.39,27.39,0,0,0-4.73-.52c-2-.18-3,.5-2.78,2.69A45,45,0,0,1,204,48.72Z"/><path class="cls-2" d="M234.7,34.24h8.41c1.7,0,1.3,1.3,1.3,2.25,0,8.24-.07,16.47.07,24.7a33.29,33.29,0,0,0,1.12,8.26,7.13,7.13,0,0,0,7.32,5.43,7,7,0,0,0,7.32-5.7,29.34,29.34,0,0,0,.84-6.86q.14-12.84,0-25.66c0-1.88.48-2.61,2.41-2.46s4,.07,6,0c1.21,0,1.71.44,1.7,1.68-.1,10.07.18,20.16-.34,30.21-.56,10.94-8.64,17.14-19.68,16.55C241,82.12,235.35,76.27,234.84,67,234.24,56.25,234.7,45.46,234.7,34.24Z"/><path class="cls-3" d="M450.08,80.08c1.91-6.13,3.66-11.76,5.4-17.38,2.88-9.31,5.81-18.59,8.59-27.92.53-1.8,1.33-2.42,3.16-2.33,2.95.15,5.92,0,8.87.1A2.49,2.49,0,0,1,478,33.78C482.71,49,487.36,64.27,492.17,80c-3.56,0-6.86,0-10.15-.07-.41,0-.94-1-1.14-1.58C480,75.5,479,72.6,478.3,69.66a2.36,2.36,0,0,0-2.83-2.08c-3.2.14-6.4.09-9.59,0a2,2,0,0,0-2.33,1.76c-.74,2.94-1.74,5.82-2.45,8.77a2.24,2.24,0,0,1-2.68,2C455.8,80,453.17,80.08,450.08,80.08Zm20.75-39-5.09,19H476C474.26,53.85,472.64,47.81,470.83,41.11Z"/><path class="cls-4" d="M410,80.06c-3.26,0-6.37.09-9.46-.07-.56,0-1.33-1-1.55-1.67-1-3-1.89-5.95-2.67-9A2,2,0,0,0,394,67.6q-5,.11-10.08,0a1.86,1.86,0,0,0-2.17,1.63c-.8,3.09-1.7,6.17-2.67,9.21-.2.63-.89,1.53-1.39,1.56-3,.14-6,.07-9.4.07,1.44-4.72,2.75-9.06,4.08-13.38,3.25-10.53,6.56-21.05,9.74-31.61.6-2,1.52-2.81,3.69-2.63,2.78.22,5.6,0,8.39.12a2.67,2.67,0,0,1,2,1.41q7,22.43,13.77,44.91A6.5,6.5,0,0,1,410,80.06Zm-21-39c-1.8,6.75-3.43,12.86-5.1,19.1h10.24C392.46,53.93,390.83,47.87,389,41.1Z"/><path class="cls-2" d="M117.86,72.09c4.45,1.8,8.63,3,13.13,2.35,3.26-.47,5.25-1.88,5.77-4.22.59-2.6-.37-4.77-3.33-6.52-2.68-1.57-5.61-2.71-8.29-4.27a22.67,22.67,0,0,1-5.36-4,12,12,0,0,1,2.32-18.35c7.29-4.84,15.08-4.11,23.23-1.44-.73,2.69-1.4,5.12-2.12,7.75-1.75-.51-3.31-1.28-4.9-1.35-2.81-.12-5.82-.36-8.44.44-3.59,1.1-4.21,5.11-1.36,7.62A29.78,29.78,0,0,0,134,53.43c2.45,1.34,5.07,2.41,7.38,4A12.13,12.13,0,0,1,147.14,69a13,13,0,0,1-8.38,11.58c-6.95,3-14,2.46-21.07.2-1.39-.45-1.92-1.13-1.39-2.66C116.93,76.27,117.3,74.31,117.86,72.09Z"/><path class="cls-2" d="M185.78,73.29c.45,2.33.91,4.42,1.19,6.53a1.71,1.71,0,0,1-.94,1.36c-8.08,2.5-22.43,2.49-29.28-6.74A24.88,24.88,0,0,1,152,59.19c0-6.36,1.38-12.34,5.73-17.33,5.29-6.07,12.2-8.24,19.94-8.12a46.53,46.53,0,0,1,8.5,1.2,2.38,2.38,0,0,1,1.12,2c-.3,1.88-.44,4.23-1.63,5.36-.79.75-3.28-.24-5-.49-11.23-1.64-18.92,5.8-18.11,17.44.45,6.5,2.56,11.93,9.19,14.34C176.23,75.24,180.84,74.55,185.78,73.29Z"/><path class="cls-5" d="M425.21,80.08V40.64c-3.62,0-7-.11-10.44,0-1.94.08-2.42-.61-2.4-2.47.07-5.72,0-5.72,5.8-5.72h30.06c0,2.45.09,4.74-.07,7,0,.42-1.06,1.06-1.65,1.08a81,81,0,0,1-8.39,0c-2.09-.13-2.74.52-2.72,2.66.11,11.34,0,22.68.1,34,0,2.14-.47,3-2.77,2.85S428,80.08,425.21,80.08Z"/><path class="cls-6" d="M347.14,72.07c5.61,0,10.79.08,16,0,1.95,0,2.65.45,2.61,2.51-.09,5.54,0,5.54-5.54,5.54-7,0-14.07,0-21.11,0-1.55,0-2.28-.29-2.27-2.08.07-14.54,0-29.08.05-43.62,0-.54.1-1.08.19-1.9,3,0,5.95-.07,8.87.09.44,0,1.15,1.14,1.17,1.78.12,3.27.06,6.54.06,9.82V72.07Z"/><path class="cls-2" d="M421.82,111.92a12.77,12.77,0,0,1-1.28.21c-3.65.19-3.64.19-3.83-3.5a100.68,100.68,0,0,0-1-11.33c-.21.5-.45,1-.63,1.52-1.35,3.75-2.75,7.49-4,11.28-.5,1.54-1.41,1.85-2.86,1.85s-1.93-.59-2.32-1.85c-1.33-4.32-2.79-8.61-4.48-12.87-.31,4.88-.63,9.76-.95,14.77h-4.66c.58-7.18,1.15-14.22,1.75-21.63a41.28,41.28,0,0,1,5.47.08c.59.08,1.26,1.1,1.51,1.82,1.47,4.21,2.82,8.46,4.33,13,1.18-3.44,2.28-6.63,3.38-9.82.39-1.13.9-2.23,1.18-3.38.35-1.47,1.22-1.8,2.61-1.8,4.23,0,4.26-.07,4.56,4C421,100.14,421.41,105.94,421.82,111.92Z"/><path class="cls-2" d="M468.65,111.81c-4.27.89-4.74.72-6.77-2.59-2.42-3.94-4.8-7.89-7.46-12.27v15c-.81.1-1.35.15-1.89.23-2,.3-2.82-.33-2.75-2.56.17-5.43,0-10.87.09-16.3,0-1,.57-2.78.83-2.77,1.84,0,4-1.21,5.44,1.09,2.54,4.15,5.11,8.28,8,12.9v-14h4.55Z"/><path class="cls-2" d="M483.93,101.33c0-3-.07-6.07.06-9.09,0-.61.83-1.7,1.29-1.7a63.33,63.33,0,0,1,10.94.24c4.9.79,7.46,4,7.92,8.88.49,5-1.92,9.54-6.24,11.34a24,24,0,0,1-12.7,1.2c-.49-.06-1.19-1.15-1.21-1.79C483.86,107.39,483.93,104.36,483.93,101.33Zm5.1,7.59c1.14,0,1.85,0,2.56,0,4.87-.13,7.48-3.3,7.16-8.69-.25-4.43-3.55-7.17-8.14-6.65-.57.06-1.5.81-1.52,1.26C489,99.42,489,104,489,108.92Z"/><path class="cls-2" d="M530.39,101.28c0-2.88.05-5.76,0-8.63,0-1.45.32-2.31,2-2.25,3.5.13,7.07-.17,10.48.42a9,9,0,0,1,7.8,8.52c.48,5.37-1.8,9.79-6.19,11.64a24,24,0,0,1-12.74,1.22c-.5-.07-1.2-1.16-1.23-1.81C530.32,107.36,530.39,104.32,530.39,101.28Zm5.12,7.48c.93.07,1.56.15,2.19.15,5,0,7.61-2.88,7.51-8.15-.1-4.75-3.09-7.47-7.9-7.27-1.12.05-1.83.27-1.82,1.59C535.53,99.55,535.51,104,535.51,108.76Z"/><path class="cls-2" d="M370.79,101.08c.18-6.67,5-11.28,11.56-11.12s10.71,4.78,10.48,11.47c-.24,6.9-4.76,11.26-11.51,11.09C374.85,112.36,370.62,107.76,370.79,101.08ZM387.6,101a31.38,31.38,0,0,0-1.12-4.21,4.85,4.85,0,0,0-4.81-3.27A4.38,4.38,0,0,0,377.06,97a21.26,21.26,0,0,0-.34,7.45,5.06,5.06,0,0,0,5.35,4.48c2.59-.09,4.33-1.77,5-4.89C387.29,103.17,387.39,102.3,387.6,101Z"/><path class="cls-2" d="M439.77,98.24c0-2,.11-4,0-6-.15-2.22,1.32-1.93,2.67-1.92s2.61-.27,2.52,1.82c-.19,4.46.08,9-.41,13.38-.51,4.58-4.17,7-9.38,7s-8.42-2.36-8.87-7.15c-.42-4.51-.26-9.09-.25-13.63,0-2.18,1.81-1.24,2.89-1.38s2.26-.15,2.22,1.6c-.06,3.59,0,7.19,0,10.78a12.19,12.19,0,0,0,.38,3.31,3.82,3.82,0,0,0,4.18,2.86c2-.07,3.48-1.06,3.75-3,.33-2.52.3-5.09.43-7.64Z"/><path class="cls-2" d="M526.83,112c-1.08.06-1.8,0-2.5.14-2.12.34-3.22-.48-3.64-2.64-.21-1.07-.9-2.73-1.61-2.87a19,19,0,0,0-5.92.07c-.42.06-.76,1.28-1,2-1.27,3.82-1.63,4-6.13,3,1-3,2.06-6,3.07-9,1.18-3.48,2.42-6.93,3.48-10.44.48-1.59,1.3-2.25,2.92-2a5.27,5.27,0,0,0,1.43,0c2.07-.31,3.09.44,3.73,2.57,1.69,5.64,3.68,11.2,5.55,16.79C526.42,110.34,526.56,111,526.83,112Zm-8-9.09c-.83-2.86-1.58-5.45-2.53-8.69-.95,3.26-1.71,5.87-2.54,8.69Z"/><path class="cls-2" d="M367.49,94.1c-8.13-.88-11.52,1.13-11.7,6.83-.19,5.91,3.12,8,11.66,7.54,1.4,3,1.28,3.43-1.9,3.76a23.22,23.22,0,0,1-5.95-.07c-5.52-.86-8.79-4.37-9.15-9.5-.4-5.69,2.45-10.27,7.76-11.76a23,23,0,0,1,7.31-.71C368.92,90.35,369,90.74,367.49,94.1Z"/><path class="cls-2" d="M478.9,90.53v21.31a5.16,5.16,0,0,1-1,.27c-4,.26-4,.26-4-3.83V93.67c0-3.45,0-3.45,3.38-3.33C477.76,90.35,478.22,90.45,478.9,90.53Z"/><path class="cls-7" d="M96.61,75.26a26.8,26.8,0,0,1-6.26-13.11c-1.55-8.69-.12-16.79,5.53-23.74,3.25-4,5-8.26,4.28-13.41a17.65,17.65,0,0,0-6-11.46C88.89,9,82,9,76.94,13.68a21.76,21.76,0,0,1-12.27,5.81,29.7,29.7,0,0,1-16.19-2.36A36.44,36.44,0,0,1,35.69,8.05c-5.46-6.16-15.8-10.48-25-6.53C2.87,4.85-.7,11.68.29,19.52c.63,5,3.31,9.05,6.86,12.59C15,39.93,18.69,49.35,17.4,60.46a33.12,33.12,0,0,1-10.1,20C3,84.69.11,89.48,0,95.76c.26,1.5.43,3,.81,4.52a15.15,15.15,0,0,0,6.86,9.26,19.58,19.58,0,0,0,14.74,2.66A24.25,24.25,0,0,0,35.28,105c7.36-7.62,16-12.49,26.95-12A21.82,21.82,0,0,1,77,99.06a11.64,11.64,0,0,0,9.58,3.38c4.87-.5,8.46-3.2,11-7.28C101.49,88.74,101.35,80.75,96.61,75.26Zm-41.9,8.86A28.38,28.38,0,1,1,83.09,55.74,28.38,28.38,0,0,1,54.71,84.12Z"/><polygon class="cls-2" points="33.14 51.98 33.14 62.91 58.73 40.07 58.73 29.86 33.14 51.98"/><polygon class="cls-2" points="43.77 56.24 43.77 67.16 69.37 44.33 69.37 34.12 43.77 56.24"/><polygon class="cls-2" points="30.97 79.78 30.97 90.7 56.57 67.87 56.57 57.66 30.97 79.78"/><polygon class="cls-2" points="41.4 83.99 41.4 94.91 67 72.07 67 61.86 41.4 83.99"/></g></g></svg>